<svg width="338" height="339" viewBox="0 0 338 339" fill="none" xmlns="http://www.w3.org/2000/svg">
<g style="mix-blend-mode:color-dodge" filter="url(#filter0_f_104_3581)">
<path d="M163.34 291.706C207.595 306.704 255.63 282.986 270.627 238.731L290.227 180.896C305.225 136.641 281.507 88.6064 237.251 73.6085L179.871 54.1625C135.615 39.1646 87.5808 62.8826 72.5828 107.138L52.9832 164.972C37.9853 209.228 61.7033 257.262 105.959 272.26L163.34 291.706Z" fill="url(#paint0_radial_104_3581)"/>
</g>
<g filter="url(#filter1_f_104_3581)">
<path d="M251.111 199.91C283.394 159.411 276.581 100.286 236.081 68.0031C195.581 35.7198 136.426 42.2587 104.143 82.7585C71.8595 123.258 78.673 182.382 119.173 214.666C159.673 246.949 218.828 240.41 251.111 199.91Z" fill="url(#paint1_radial_104_3581)"/>
</g>
<g style="mix-blend-mode:color-dodge" filter="url(#filter2_f_104_3581)">
<path d="M91.744 222.716C129.338 235.457 170.189 215.167 182.93 177.574C195.67 139.98 175.57 99.0344 137.977 86.2941C100.383 73.5538 59.5313 93.8433 46.791 131.437C34.0508 169.031 54.1504 209.976 91.744 222.716Z" fill="url(#paint2_radial_104_3581)"/>
</g>
<defs>
<filter id="filter0_f_104_3581" x="6.17951" y="7.35895" width="330.851" height="331.151" filterUnits="userSpaceOnUse" color-interpolation-filters="sRGB">
<feFlood flood-opacity="0" result="BackgroundImageFix"/>
<feBlend mode="normal" in="SourceGraphic" in2="BackgroundImageFix" result="shape"/>
<feGaussianBlur stdDeviation="21.1521" result="effect1_foregroundBlur_104_3581"/>
</filter>
<filter id="filter1_f_104_3581" x="36.3712" y="0.124252" width="282.512" height="282.42" filterUnits="userSpaceOnUse" color-interpolation-filters="sRGB">
<feFlood flood-opacity="0" result="BackgroundImageFix"/>
<feBlend mode="normal" in="SourceGraphic" in2="BackgroundImageFix" result="shape"/>
<feGaussianBlur stdDeviation="23.6903" result="effect1_foregroundBlur_104_3581"/>
</filter>
<filter id="filter2_f_104_3581" x="0.65955" y="40.1832" width="228.402" height="228.644" filterUnits="userSpaceOnUse" color-interpolation-filters="sRGB">
<feFlood flood-opacity="0" result="BackgroundImageFix"/>
<feBlend mode="normal" in="SourceGraphic" in2="BackgroundImageFix" result="shape"/>
<feGaussianBlur stdDeviation="21.1521" result="effect1_foregroundBlur_104_3581"/>
</filter>
<radialGradient id="paint0_radial_104_3581" cx="0" cy="0" r="1" gradientUnits="userSpaceOnUse" gradientTransform="translate(212.491 151.48) rotate(14.8006) scale(164.329 164.671)">
<stop stop-color="#FFE600"/>
<stop offset="1" stop-color="#A500DF"/>
</radialGradient>
<radialGradient id="paint1_radial_104_3581" cx="0" cy="0" r="1" gradientUnits="userSpaceOnUse" gradientTransform="translate(173.858 161.157) rotate(-166.313) scale(97.9897 98.1939)">
<stop stop-color="#4A3AFF"/>
<stop offset="1" stop-color="#4A3AFF" stop-opacity="0.08"/>
</radialGradient>
<radialGradient id="paint2_radial_104_3581" cx="0" cy="0" r="1" gradientUnits="userSpaceOnUse" gradientTransform="translate(96.1548 178.305) rotate(-136.485) scale(68.0692 68.211)">
<stop stop-color="#4A3AFF"/>
<stop offset="0.755208" stop-color="#3EB8D2"/>
</radialGradient>
</defs>
</svg>
