<svg width="48" height="48" viewBox="0 0 48 48" fill="none" xmlns="http://www.w3.org/2000/svg">
<g clip-path="url(#clip0_295_4446)">
<path d="M39.5588 6.34534H8.44492C6.81613 6.34534 5.5 7.66023 5.5 9.28655V38.7148C5.5 40.3362 6.81613 41.6548 8.44492 41.6548H39.5588C41.1802 41.6548 42.5 40.3374 42.5 38.7148V9.28655C42.4988 7.66023 41.1789 6.34534 39.5588 6.34534ZM30.3706 16.8287C29.6056 16.3813 28.9988 16.0279 28.2363 16.0279C27.4899 16.0279 26.8522 16.2145 26.526 16.5284C26.1997 16.8398 26.0378 17.4429 26.0378 18.3339V19.6525H30.0283L29.1644 23.3204H26.0378V35.5079H21.0254V23.3204H18.686V19.6525H21.0279V18.2523C21.0279 16.778 21.2046 15.8956 21.5531 15.1677C21.9004 14.4423 22.5739 13.6341 23.5106 13.1769C24.4461 12.7209 25.8302 12.491 27.2625 12.491C28.7307 12.491 29.8775 12.9804 31.2838 13.3746L30.3706 16.8287Z" fill="white"/>
</g>
<defs>
<clipPath id="clip0_295_4446">
<rect width="37" height="37" fill="white" transform="translate(5.5 5.5)"/>
</clipPath>
</defs>
</svg>
