<svg width="48" height="49" viewBox="0 0 48 49" fill="none" xmlns="http://www.w3.org/2000/svg">
<g clip-path="url(#clip0_452_4351)">
<path d="M39.5588 6.1582H8.44492C6.81613 6.1582 5.5 7.53606 5.5 9.24024V40.0775C5.5 41.7765 6.81613 43.1582 8.44492 43.1582H39.5588C41.1802 43.1582 42.5 41.7778 42.5 40.0775V9.24024C42.4988 7.53606 41.1789 6.1582 39.5588 6.1582ZM30.9054 15.0238C30.6401 16.0753 29.4583 16.3735 28.3759 16.3085C28.3299 16.3057 28.2834 16.3043 28.2363 16.3043C27.4899 16.3043 26.8522 16.4999 26.526 16.8288C26.1997 17.1551 26.0378 17.7871 26.0378 18.7207C26.0378 19.4839 26.6565 20.1025 27.4196 20.1025H27.8116C28.9481 20.1025 29.7914 21.1563 29.5422 22.2652L29.4692 22.59C29.291 23.3827 28.5871 23.946 27.7746 23.946C26.8154 23.946 26.0378 24.7236 26.0378 25.6828V34.2108C26.0378 35.5949 24.9158 36.717 23.5316 36.717C22.1475 36.717 21.0254 35.5949 21.0254 34.2108V25.1157C21.0254 24.4697 20.5017 23.946 19.8557 23.946C19.2097 23.946 18.686 23.4223 18.686 22.7763V21.2734C18.686 20.6267 19.2103 20.1025 19.857 20.1025C20.5036 20.1025 21.0279 19.5782 21.0279 18.9316V18.6353C21.0279 17.0904 21.2046 16.1658 21.5531 15.403C21.9004 14.6429 22.5739 13.796 23.5106 13.3168C24.4461 12.839 25.8302 12.5981 27.2625 12.5981C28.1908 12.5981 28.9906 12.8031 29.8088 13.0583C30.6334 13.3155 31.1167 14.1863 30.9054 15.0238Z" fill="white"/>
</g>
<defs>
<clipPath id="clip0_452_4351">
<rect x="5.5" y="6.1582" width="37" height="37" rx="10" fill="white"/>
</clipPath>
</defs>
</svg>
