<svg width="57" height="14" viewBox="0 0 57 14" fill="none" xmlns="http://www.w3.org/2000/svg">
<path fill-rule="evenodd" clip-rule="evenodd" d="M3.43414 2.96912H11.6752L3.43414 7.94162V2.96912Z" fill="#FF7AFF"/>
<path fill-rule="evenodd" clip-rule="evenodd" d="M11.6752 11.1948H3.43414L11.6752 6.22229V11.1948Z" fill="#FF7AFF"/>
<path fill-rule="evenodd" clip-rule="evenodd" d="M3.43414 11.1948H11.6752L9.21216 13.6733H3.43414V11.1948Z" fill="url(#paint0_linear_496_4346)"/>
<path fill-rule="evenodd" clip-rule="evenodd" d="M11.6752 2.96912H14.1382V8.71615L11.6752 11.1947V2.96912Z" fill="url(#paint1_linear_496_4346)"/>
<path fill-rule="evenodd" clip-rule="evenodd" d="M11.6752 2.96923H3.43414L5.89716 0.490723H11.6752V2.96923Z" fill="url(#paint2_linear_496_4346)"/>
<path fill-rule="evenodd" clip-rule="evenodd" d="M3.43414 11.1947H0.97113V5.44762L3.43414 2.96912V11.1947Z" fill="url(#paint3_linear_496_4346)"/>
<path d="M18.1294 10.082H22.7768V8.80244H20.289L20.2795 8.77865L22.7245 6.1053V5.11587H18.2245V6.39547H20.5649L20.5744 6.41925L18.1294 9.09261V10.082Z" fill="white"/>
<path d="M25.1409 10.22C25.8021 10.22 26.4537 9.91554 26.7677 9.45413H26.7867C26.9675 9.91554 27.4765 10.22 28.0616 10.22C28.2709 10.22 28.5182 10.201 28.68 10.1677L28.5896 8.96893C28.5705 8.97368 28.542 8.97368 28.5135 8.97368C28.3755 8.97368 28.2804 8.87379 28.2804 8.72633V6.79504C28.2804 5.70572 27.3243 4.97792 25.8924 4.97792C24.5272 4.97792 23.6424 5.72475 23.6853 6.84261L25.1789 6.75699C25.0885 6.40974 25.3502 6.18141 25.8354 6.18141C26.3491 6.18141 26.6916 6.47158 26.6916 6.90921V7.17083C26.4062 7.12327 26.0209 7.09473 25.7355 7.09473C24.2846 7.09473 23.3142 7.73214 23.3142 8.68352C23.3142 9.60635 24.0468 10.22 25.1409 10.22ZM25.5832 9.07358C25.2074 9.07358 24.9553 8.87855 24.9553 8.58362C24.9553 8.2554 25.3073 8.03658 25.8354 8.03658C26.078 8.03658 26.4204 8.06512 26.6868 8.11269C26.6155 8.68827 26.1731 9.07358 25.5832 9.07358ZM29.3982 10.082H30.987V7.11375C30.987 6.55244 31.32 6.18141 31.8147 6.18141C32.2428 6.18141 32.5283 6.50488 32.5283 6.99007V10.082H34.117V7.11375C34.117 6.55244 34.45 6.18141 34.9447 6.18141C35.3729 6.18141 35.6583 6.50488 35.6583 6.99007V10.082H37.2471V6.7665C37.2471 5.69145 36.5335 4.97792 35.4585 4.97792C34.8211 4.97792 34.1932 5.29188 33.8887 5.75805H33.8697C33.5938 5.29188 32.9802 4.97792 32.3285 4.97792C31.7053 4.97792 31.0917 5.26809 30.792 5.70572L30.773 5.70097L30.4733 5.11587H29.3982V10.082ZM39.9918 10.22C40.653 10.22 41.3047 9.91554 41.6186 9.45413H41.6376C41.8184 9.91554 42.3274 10.22 42.9125 10.22C43.1218 10.22 43.3691 10.201 43.5309 10.1677L43.4405 8.96893C43.4215 8.97368 43.3929 8.97368 43.3644 8.97368C43.2264 8.97368 43.1313 8.87379 43.1313 8.72633V6.79504C43.1313 5.70572 42.1752 4.97792 40.7433 4.97792C39.3781 4.97792 38.4933 5.72475 38.5362 6.84261L40.0298 6.75699C39.9394 6.40974 40.2011 6.18141 40.6863 6.18141C41.2 6.18141 41.5425 6.47158 41.5425 6.90921V7.17083C41.2571 7.12327 40.8718 7.09473 40.5864 7.09473C39.1355 7.09473 38.1651 7.73214 38.1651 8.68352C38.1651 9.60635 38.8977 10.22 39.9918 10.22ZM40.4341 9.07358C40.0584 9.07358 39.8062 8.87855 39.8062 8.58362C39.8062 8.2554 40.1582 8.03658 40.6863 8.03658C40.9289 8.03658 41.2714 8.06512 41.5377 8.11269C41.4664 8.68827 41.024 9.07358 40.4341 9.07358ZM45.719 10.22C46.3802 10.22 47.0319 9.91554 47.3459 9.45413H47.3649C47.5456 9.91554 48.0546 10.22 48.6397 10.22C48.849 10.22 49.0964 10.201 49.2581 10.1677L49.1677 8.96893C49.1487 8.97368 49.1202 8.97368 49.0916 8.97368C48.9537 8.97368 48.8585 8.87379 48.8585 8.72633V6.79504C48.8585 5.70572 47.9024 4.97792 46.4706 4.97792C45.1054 4.97792 44.2206 5.72475 44.2634 6.84261L45.7571 6.75699C45.6667 6.40974 45.9283 6.18141 46.4135 6.18141C46.9273 6.18141 47.2698 6.47158 47.2698 6.90921V7.17083C46.9843 7.12327 46.599 7.09473 46.3136 7.09473C44.8628 7.09473 43.8924 7.73214 43.8924 8.68352C43.8924 9.60635 44.6249 10.22 45.719 10.22ZM46.1614 9.07358C45.7856 9.07358 45.5335 8.87855 45.5335 8.58362C45.5335 8.2554 45.8855 8.03658 46.4135 8.03658C46.6561 8.03658 46.9986 8.06512 47.265 8.11269C47.1936 8.68827 46.7513 9.07358 46.1614 9.07358ZM49.9764 10.082H51.5652V7.20413C51.5652 6.5905 51.922 6.18141 52.4595 6.18141C52.9352 6.18141 53.2491 6.53342 53.2491 7.06618V10.082H54.8379V6.84737C54.8379 5.72475 54.0863 4.97792 52.9637 4.97792C52.3073 4.97792 51.6698 5.29663 51.3654 5.77708L51.3464 5.77232L51.1466 5.11587H49.9764V10.082Z" fill="white"/>
<defs>
<linearGradient id="paint0_linear_496_4346" x1="3.438" y1="12.4307" x2="11.6712" y2="12.4307" gradientUnits="userSpaceOnUse">
<stop stop-color="#0178FA"/>
<stop offset="1" stop-color="#484B98"/>
</linearGradient>
<linearGradient id="paint1_linear_496_4346" x1="11.6132" y1="7.11753" x2="14.8979" y2="6.92961" gradientUnits="userSpaceOnUse">
<stop stop-color="#A16DFF"/>
<stop offset="1" stop-color="#6C509A"/>
</linearGradient>
<linearGradient id="paint2_linear_496_4346" x1="11.6712" y1="1.72746" x2="3.438" y2="1.72746" gradientUnits="userSpaceOnUse">
<stop stop-color="#0178FA"/>
<stop offset="1" stop-color="#484B98"/>
</linearGradient>
<linearGradient id="paint3_linear_496_4346" x1="4.17647" y1="6.61201" x2="0.891834" y2="6.79984" gradientUnits="userSpaceOnUse">
<stop stop-color="#A16DFF"/>
<stop offset="1" stop-color="#6C509A"/>
</linearGradient>
</defs>
</svg>
