<svg width="1441" height="1946" viewBox="0 0 1441 1946" fill="none" xmlns="http://www.w3.org/2000/svg">
<g clip-path="url(#clip0_123_3098)">
<path d="M-1171.88 -51.5379C-930.567 40.1903 -737.245 56.8808 -604.328 54.8266C-469.919 52.7471 -363.359 30.8805 -205.28 67.4059C-30.8024 107.432 64.5091 172.603 100.938 201.03C151.432 240.464 143.886 247.215 222.428 320.208C373.299 460.429 418.767 451.982 480.681 526.679C583.345 650.515 499.916 723.839 588.764 892.062C653.092 1013.91 790.1 1151.98 959.132 1182.73C1118.31 1211.68 1180.43 1122.66 1335.08 1179.89C1398.6 1203.39 1443.2 1240.13 1532.36 1313.6C1646.72 1407.58 1714.92 1488.6 1743.16 1519.11C1826.8 1609.57 1981.12 1715.21 2291.98 1764.6" stroke="url(#paint0_linear_123_3098)" stroke-width="2.73336" stroke-miterlimit="10"/>
<path d="M-1188.4 -21.0388C-955.947 69.7146 -761.387 94.1852 -617.795 94.8495C-500.851 94.7696 -404.37 79.4865 -287.308 91.6157C-261.716 94.2928 -235.074 97.778 -207.153 103.139C-31.2335 136.973 68.0497 192.853 108.86 217.499C163.603 250.518 160.582 256.824 237.672 328.119C292.021 378.329 332.058 411.316 363.707 435.536C417.517 476.689 447.045 491.879 482.71 538.539C496.053 555.876 507.355 574.692 516.391 594.615C558.201 686.73 519.62 759.629 597.828 893.964C665.903 1010.9 805.19 1141.39 971.536 1171.2C984.718 1173.56 998.011 1175.25 1011.36 1176.26C1146.14 1186.42 1208.93 1120.81 1344.94 1170.93C1359.29 1176.2 1373.26 1182.41 1386.78 1189.54C1432.26 1213.33 1474.56 1247.79 1541.34 1302.78C1651.88 1394.07 1719.1 1473.7 1750.22 1507.38C1773.07 1531.95 1797.94 1554.55 1824.56 1574.96C1916.56 1645.86 2060.3 1717.51 2290.72 1759.42" stroke="url(#paint1_linear_123_3098)" stroke-width="2.73336" stroke-miterlimit="10"/>
<path d="M-1206.25 12.2235C-982.654 101.914 -786.898 134.71 -632.45 137.352C-509.811 139.478 -408.726 123.221 -292.64 132.661C-266.127 134.777 -238.747 137.178 -210.262 141.634C-32.884 169.241 71.8076 212.467 115.58 236.747C171.948 268.105 176.132 269.281 251.645 338.776C304.493 387.482 343.572 422.014 373.75 447.577C424.639 490.553 451.131 506.99 483.308 553.111C495.52 570.788 505.922 589.648 514.357 609.407C553.98 699.995 523.844 771.452 605.588 898.769C677.427 1010.76 818.992 1133.67 982.651 1162.55C996.571 1164.86 1009.57 1166.73 1022.2 1167.55C1160.94 1178.61 1222.43 1116.82 1353.45 1165.08C1367.7 1170.26 1381.59 1176.37 1395.03 1183.39C1441.42 1207.31 1483.79 1241.41 1548.82 1295.34C1655.66 1383.81 1721.77 1462.13 1755.98 1498.64C1778.65 1523 1803.23 1545.49 1829.5 1565.92C1920.35 1636.87 2062.24 1710.64 2287.99 1757.11" stroke="url(#paint2_linear_123_3098)" stroke-width="2.73336" stroke-miterlimit="10"/>
<path d="M-1225.17 47.8059C-1010.5 136.576 -813.431 177.186 -648.257 182.352C-519.93 186.332 -414.219 169.329 -299.164 176.01C-271.693 177.584 -243.558 178.953 -214.562 182.433C-35.7598 203.885 70.769 241.458 121.127 258.264C183.413 279.085 190.507 284.008 264.479 351.719C315.93 398.885 354.034 434.996 382.919 461.987C430.868 506.735 454.361 524.523 483.067 570.07C494.012 588.04 503.424 606.9 511.201 626.451C548.654 715.476 527.192 785.556 612.205 905.685C687.95 1012.79 831.636 1128.1 992.626 1156C1006.44 1158.26 1019.37 1160.1 1031.87 1160.99C1174.6 1172.74 1234.82 1114.96 1360.96 1160.96C1375.12 1166.06 1388.94 1172.09 1402.32 1178.99C1449.62 1203 1492.19 1236.9 1555.43 1289.54C1658.52 1375.12 1723.6 1452.11 1760.73 1491.72C1783.31 1515.83 1807.65 1538.23 1833.56 1558.71C1923.25 1629.73 2063.28 1705.65 2284.34 1756.62" stroke="url(#paint3_linear_123_3098)" stroke-width="2.73336" stroke-miterlimit="10"/>
<path d="M-1244.16 83.4434C-1038.34 171.239 -840.069 219.7 -664.118 227.372C-530.049 233.187 -419.73 215.386 -305.669 219.413C-277.277 220.427 -248.405 220.712 -218.844 223.286C-38.668 238.688 71.0975 267.14 126.658 279.905C192.308 294.977 204.724 298.79 277.297 364.786C327.442 410.586 364.411 448.07 391.981 476.348C437.008 522.832 457.433 542.024 482.72 586.979C492.382 605.205 500.813 624.057 507.956 643.409C543.309 730.818 530.503 799.557 618.72 912.727C698.387 1014.92 844.141 1122.63 1002.48 1149.62C1016.15 1151.81 1029.01 1153.61 1041.45 1154.56C1188.17 1167.05 1246.88 1113.59 1368.27 1157.15C1382.34 1162.23 1396.08 1168.15 1409.42 1174.9C1457.55 1199.01 1500.11 1232.55 1561.86 1284.04C1661.23 1366.83 1725.23 1442.53 1765.33 1485.13C1787.76 1509.04 1811.85 1531.33 1837.42 1551.85C1925.96 1622.97 2064.17 1700.98 2280.55 1756.55" stroke="url(#paint4_linear_123_3098)" stroke-width="2.73336" stroke-miterlimit="10"/>
<path d="M-1256.88 106.183C-1059.91 193.003 -860.422 249.368 -673.729 259.529C-533.938 267.127 -418.925 248.438 -305.926 249.954C-276.63 250.354 -247.018 249.731 -216.877 251.277C-35.3985 260.595 77.6252 280.154 138.366 288.562C207.296 298.149 225.383 300.672 296.291 364.868C335.426 400.369 372.438 438.141 407.137 477.989C449.364 526.224 466.616 546.858 488.463 590.993C497.979 610.317 503.968 628.91 511.119 647.624C544.439 733.276 540.207 800.939 631.605 906.921C715.319 1004.21 863.053 1104.34 1018.71 1130.38C1032.27 1132.53 1045.06 1134.29 1057.39 1135.28C1208.1 1148.63 1265.59 1098.9 1381.99 1140.51C1395.95 1145.53 1409.6 1151.37 1422.87 1158C1471.87 1182.3 1514.54 1215.42 1574.6 1265.53C1670.26 1345.42 1733.19 1419.91 1776.22 1465.47C1798.53 1489.19 1822.4 1511.39 1847.66 1531.93C1935.02 1603.14 2071.33 1683.29 2283.06 1743.38" stroke="url(#paint5_linear_123_3098)" stroke-width="2.73336" stroke-miterlimit="10"/>
<path d="M-1266.52 122.123C-1078.41 207.881 -877.678 272.113 -680.241 284.851C-534.727 294.233 -415.058 274.552 -303.167 273.837C-272.916 273.606 -242.617 272.005 -211.895 272.61C-28.9878 276.035 87.3126 286.754 153.231 290.717C225.251 294.946 249.059 295.984 318.461 358.414C357.347 393.396 393.179 431.632 425.566 472.704C464.887 522.553 479.073 544.767 497.415 588.399C505.595 607.693 510.374 626.359 517.351 645.164C548.538 729.359 553.237 795.289 647.559 894.44C735.424 986.795 885.068 1079.39 1038.05 1104.46C1051.47 1106.53 1064.15 1108.25 1076.45 1109.31C1231.1 1123.63 1287.43 1077.79 1398.66 1117.44C1412.54 1122.38 1426.12 1128.12 1439.33 1134.66C1489.15 1159.04 1531.98 1191.84 1590.26 1240.84C1682.17 1317.93 1744.04 1391.08 1790.03 1439.73C1812.22 1463.22 1835.83 1485.31 1860.75 1505.88C1946.97 1577.2 2081.42 1659.5 2288.52 1724.08" stroke="url(#paint6_linear_123_3098)" stroke-width="2.73336" stroke-miterlimit="10"/>
<path d="M-1276.17 138.363C-1096.99 223.2 -895.017 295.125 -686.766 310.473C-535.547 321.586 -411.223 300.824 -300.34 297.667C-269.099 296.734 -238.043 294.189 -206.809 293.907C-22.5775 291.477 97.0024 293.531 168.112 292.75C243.543 291.949 272.767 291.227 340.629 351.872C379.254 386.558 413.87 425.465 443.827 467.863C480.204 519.22 491.292 543.173 506.284 586.071C513.004 605.319 516.694 623.987 523.41 642.971C552.618 725.478 566.219 790.01 663.428 882.225C755.513 969.589 906.945 1054.63 1057.12 1078.75C1070.44 1080.77 1083.04 1082.45 1095.25 1083.51C1253.95 1098.56 1308.82 1056.59 1415.35 1094.07C1429.12 1098.95 1442.61 1104.6 1455.76 1110.99C1506.56 1135.33 1549.39 1167.95 1605.93 1215.77C1694.17 1289.97 1754.9 1361.87 1803.91 1413.49C1825.95 1436.8 1849.32 1458.81 1873.9 1479.43C1959.02 1550.69 2091.6 1635.16 2293.97 1704.35" stroke="url(#paint7_linear_123_3098)" stroke-width="2.73336" stroke-miterlimit="10"/>
<path d="M-1285.9 154.656C-1115.56 238.518 -912.354 318.222 -693.359 336.148C-536.4 349.008 -407.404 327.131 -297.595 321.76C-265.486 320.198 -233.689 316.832 -201.842 315.362C-16.2509 307.094 106.679 300.517 182.944 294.976C261.699 289.146 296.41 286.609 362.765 345.488C401.121 379.859 434.576 419.334 462.191 462.808C495.891 515.843 503.561 541.383 515.203 583.547C520.483 602.802 523.187 621.433 529.608 640.581C556.82 721.435 579.303 784.429 679.349 869.814C775.776 952.114 928.892 1029.73 1076.5 1052.92C1089.71 1054.9 1102.25 1056.55 1114.34 1057.68C1277.01 1073.71 1330.56 1035.47 1432.21 1070.87C1445.89 1075.71 1459.31 1081.27 1472.41 1087.52C1524.11 1111.89 1567.14 1144.35 1621.9 1190.88C1706.37 1262.23 1766.04 1332.89 1818.02 1387.49C1839.89 1410.64 1862.99 1432.59 1887.21 1453.27C1971.14 1524.74 2101.94 1611.23 2299.63 1684.98" stroke="url(#paint8_linear_123_3098)" stroke-width="2.73336" stroke-miterlimit="10"/>
<path d="M-1295.58 170.879C-1134.05 253.66 -929.519 341.143 -699.797 361.681C-536.941 376.322 -403.467 353.192 -294.696 345.713C-261.633 343.432 -229.129 339.227 -196.736 336.8C-9.87216 322.782 116.427 307.627 197.897 297.131C280.032 286.518 320.19 281.973 385.004 339.069C423.073 373.246 455.332 413.384 480.521 457.913C511.452 512.454 515.78 539.789 524.087 581.184C527.927 600.446 529.558 618.955 535.878 638.403C561.182 717.602 592.72 778.879 695.429 857.613C796.232 934.779 950.962 1005.02 1095.92 1027.29C1108.99 1029.2 1121.46 1030.82 1133.39 1032.18C1300.01 1049.14 1352.3 1014.65 1448.95 1048.01C1462.59 1052.74 1475.97 1058.21 1489.01 1064.41C1541.47 1089.11 1584.58 1120.95 1637.86 1166.21C1718.59 1234.72 1777.16 1304.11 1832.15 1361.73C1852 1382.56 1874.53 1404.55 1900.7 1427.11C1983.47 1498.64 2112.41 1587.28 2305.42 1665.54" stroke="url(#paint9_linear_123_3098)" stroke-width="2.73336" stroke-miterlimit="10"/>
<path d="M-1305.03 186.606C-1152.55 268.363 -946.743 363.643 -706.241 386.862C-537.805 403.13 -399.537 378.812 -291.785 369.277C-257.803 366.261 -224.575 361.271 -191.602 357.814C-3.32268 338.115 126.4 314.451 212.809 298.917C298.426 283.308 343.895 276.952 407.204 332.281C445.029 366.3 476.157 407.094 498.984 452.558C527.201 508.673 527.885 537.705 533.106 578.361C535.505 597.63 536.116 616.085 542.034 635.646C565.464 713.119 605.919 772.876 711.324 844.799C816.729 916.722 972.901 979.687 1115.17 1001.02C1128.14 1002.87 1140.53 1004.46 1152.4 1005.78C1323 1023.7 1374.02 992.952 1465.84 1024.31C1479.36 1028.95 1492.62 1034.32 1505.56 1040.42C1559.02 1065.2 1602.11 1096.73 1653.47 1140.8C1730.52 1206.46 1787.95 1274.61 1845.95 1335.19C1865.73 1355.91 1888.06 1377.75 1913.8 1400.32C1995.41 1471.91 2122.5 1562.67 2310.82 1645.52" stroke="url(#paint10_linear_123_3098)" stroke-width="2.73336" stroke-miterlimit="10"/>
<path d="M-1314.35 202.137C-1170.65 283.041 -963.709 385.875 -712.443 411.812C-538.195 429.949 -395.403 404.096 -288.737 392.647C-253.784 388.876 -219.848 383.136 -186.224 378.685C3.41623 353.235 136.546 321.185 227.961 300.383C317.016 280.236 368.035 271.66 429.537 325.122C470.372 360.625 500.25 407.91 517.546 446.816C543.119 504.452 540.444 535.402 542.259 575.167C543.146 594.409 542.772 612.828 548.377 632.588C570.003 708.282 619.354 766.289 727.441 831.613C837.27 898.12 995.044 954.013 1134.63 974.406C1147.45 976.192 1159.78 977.74 1171.6 979.051C1346.18 997.869 1395.89 970.849 1482.68 1000.15C1496.12 1004.72 1509.31 1010 1522.19 1015.98C1576.49 1040.73 1619.68 1072.04 1669.53 1115C1742.84 1177.82 1799.07 1244.66 1860.08 1308.25C1879.8 1328.8 1901.91 1350.59 1927.2 1373.07C2007.67 1444.76 2132.91 1537.65 2316.59 1624.94" stroke="url(#paint11_linear_123_3098)" stroke-width="2.73336" stroke-miterlimit="10"/>
<path d="M-1323.59 217.439C-1188.76 297.404 -980.511 407.402 -718.562 436.496C-538.637 455.785 -391.185 429.115 -285.484 415.679C-249.613 411.084 -214.881 404.681 -180.819 399.133C10.2225 368.213 146.931 327.511 243.217 301.724C335.812 276.914 391.888 266.144 452.185 317.939C491.661 352.007 520.647 400.607 536.388 441.033C559.316 500.19 552.91 532.837 551.656 571.916C551.138 591.182 549.743 609.46 555.07 629.435C574.806 703.527 633.278 759.588 743.859 818.615C858.34 879.685 1017.49 928.526 1154.4 947.945C1167.12 949.71 1179.36 951.219 1191.13 952.472C1369.7 972.329 1418.13 948.968 1499.97 976.24C1513.32 980.718 1526.42 985.904 1539.22 991.776C1594.41 1016.6 1637.72 1047.67 1685.89 1089.39C1755.45 1149.32 1810.57 1215.1 1874.68 1281.58C1894.32 1302.05 1916.21 1323.64 1941.12 1346.11C2020.41 1417.9 2143.81 1512.9 2322.78 1604.82" stroke="url(#paint12_linear_123_3098)" stroke-width="2.73336" stroke-miterlimit="10"/>
<path d="M-1332.72 232.491C-1206.76 311.429 -997.237 429.223 -724.561 460.93C-538.897 481.966 -386.761 453.795 -282.162 438.567C-245.408 433.22 -209.951 426.031 -175.274 419.471C17.1672 382.993 157.563 333.865 258.573 302.763C354.797 273.288 416.141 260.25 474.738 310.23C512.907 342.844 541.02 392.812 555.101 434.794C575.454 495.505 565.283 529.921 560.871 568.227C558.718 587.45 556.533 605.742 561.529 625.863C579.727 698.347 645.57 756.023 760.341 805.122C881.005 856.74 1040 902.545 1174.26 921.042C1186.86 922.75 1199.02 924.22 1210.74 925.45C1393.23 946.576 1440.43 926.591 1517.32 951.839C1530.59 956.259 1543.61 961.364 1556.34 967.133C1612.39 992.066 1655.96 1022.87 1702.32 1063.2C1767.91 1120.4 1821.98 1185.2 1889.16 1254.45C1908.72 1274.8 1930.4 1296.29 1954.85 1318.71C2033 1390.61 2154.56 1487.73 2328.83 1584.2" stroke="url(#paint13_linear_123_3098)" stroke-width="2.73336" stroke-miterlimit="10"/>
<path d="M-1341.91 247.301C-1224.77 325.193 -1014.04 450.838 -730.619 485.121C-539.214 507.906 -382.625 478.165 -278.866 461.055C-241.089 454.934 -204.958 447.067 -169.703 439.302C24.2586 397.193 167.992 339.734 273.992 303.399C373.952 269.398 440.533 254.339 497.677 302.533C534.502 333.677 561.76 384.977 574.215 428.533C592.028 490.728 577.986 526.86 570.645 564.461C566.929 583.675 563.899 601.911 568.565 622.266C584.8 692.938 661.09 744.99 776.887 791.402C900.416 841.039 1062.53 876.319 1194.11 893.878C1206.44 895.426 1218.76 896.975 1230.34 898.167C1416.8 920.192 1462.78 903.935 1534.7 927.194C1547.88 931.519 1560.82 936.526 1573.47 942.193C1630.4 967.199 1673.91 997.667 1718.71 1036.9C1780.82 1091.18 1833.74 1154.46 1903.8 1226.88C1923.33 1247.12 1944.91 1268.35 1968.93 1290.96C2046.01 1362.73 2165.67 1462.17 2335.1 1563.11" stroke="url(#paint14_linear_123_3098)" stroke-width="2.73336" stroke-miterlimit="10"/>
<path d="M-1350.69 262.085C-1242.47 339.056 -1030.5 472.394 -736.288 509.323C-539.002 533.923 -377.981 502.386 -275.322 483.572C-236.752 476.524 -199.716 468.132 -163.987 459.376C31.4716 412.234 178.812 345.7 289.36 304.053C392.981 265.228 464.515 248.013 520.367 294.63C555.85 324.303 582.323 376.969 593.135 422.046C608.341 485.954 590.459 523.557 580.155 560.523C574.752 579.713 570.965 597.891 575.284 618.428C589.803 687.407 675.191 737.197 793.363 777.56C921.417 821.48 1085.07 850.005 1213.94 866.573C1226.27 868.122 1238.35 869.551 1249.79 871.027C1440.25 893.968 1484.96 881.282 1551.96 902.533C1565.12 906.876 1578.03 911.901 1590.66 917.586C1643.57 940.525 1692.36 971.989 1735.08 1010.72C1793.45 1062.17 1845.28 1124.19 1918.35 1199.61C1937.82 1219.7 1959.1 1240.91 1982.64 1263.34C2093 1367.49 2213.04 1460.89 2341.12 1542.26" stroke="url(#paint15_linear_123_3098)" stroke-width="2.73336" stroke-miterlimit="10"/>
<path d="M-1359.59 276.677C-1260.23 352.673 -1047.03 493.791 -742.067 533.297C-539.183 559.577 -373.583 526.574 -271.657 506.016C180.854 414.539 420.209 184.93 543.389 286.667C577.53 314.869 603.217 368.902 612.333 415.518C631.832 515.021 570.753 554.145 582.316 614.565C610.649 762.727 1032.55 814.523 1269.66 843.65C1500.85 872.034 1518.55 853.989 1607.82 892.399C1763.69 959.357 1813.74 1058.82 1996.65 1235.46C2105.49 1340.29 2222.88 1435.86 2347.6 1521.19" stroke="url(#paint16_linear_123_3098)" stroke-width="2.73336" stroke-miterlimit="10"/>
<path d="M-1364.45 286.809C-1263.18 366.375 -1055.74 501.336 -764.144 539.012C-562.796 564.861 -401.944 528.495 -293.134 507.662C141.389 424.729 364.375 216.287 495.862 307.413C547.241 343.002 595.176 387.96 619.345 433.251C666.813 522.283 616.473 557.448 638.331 620.927C686.152 759.957 1075.84 816.268 1300.45 846.38C1519.35 875.499 1535.35 861.735 1626.23 909.622C1777.23 989.191 1827.05 1079.87 1998.73 1247.57C2105.85 1352.18 2222.59 1446.46 2347.39 1529.19" stroke="url(#paint17_linear_123_3098)" stroke-width="2.73336" stroke-miterlimit="10"/>
<path d="M-1369.5 297.366C-1201.29 431.454 -999.691 517.112 -786.407 545.115C-586.612 570.569 -430.686 530.667 -314.799 509.697C101.6 434.502 311.822 244.25 448.184 328.564C517.36 371.372 584.995 406.211 626.153 451.408C696.827 528.82 660.914 559.964 694.142 627.714C757.666 757.061 1118.94 818.402 1331.09 849.516C1537.39 879.217 1551.89 869.396 1644.48 927.252C1790.59 1018.5 1840 1101.66 2000.61 1260.1C2105.99 1364.44 2222.03 1457.43 2346.82 1537.54" stroke="url(#paint18_linear_123_3098)" stroke-width="2.73336" stroke-miterlimit="10"/>
<path d="M-1378.5 316.143C-1216.04 448.116 -1020.11 532.354 -812.572 559.457C-614.348 584.463 -463.314 541.041 -340.4 519.952C57.4576 451.731 244.599 305.477 396.533 357.919C491.579 390.732 569.217 433.15 629.076 477.767C719.54 545.146 700.374 570.244 746.069 642.702C821.715 762.655 1158 829.146 1357.76 860.855C1551.57 891.629 1564.51 884.891 1658.78 953.05C1800.23 1055.3 1849.01 1131.59 1998.61 1280.83C2102.23 1384.97 2217.61 1476.7 2342.43 1554.17" stroke="url(#paint19_linear_123_3098)" stroke-width="2.73336" stroke-miterlimit="10"/>
<path d="M-1392.2 344.733C-1235.5 474.561 -1045.23 557.341 -843.423 583.488C-646.718 608.028 -500.61 561.07 -370.652 539.915C8.63815 478.174 186.013 349.761 340.267 396.999C454.854 432.116 561.008 452.74 627.313 513.816C718.551 597.856 721.468 602.041 793.309 667.381C857.566 792.288 1192.43 849.473 1379.82 881.919C1561.14 913.465 1572.57 909.793 1668.45 988.607C1805.41 1101.22 1853.26 1171.35 1991.92 1311.25C2093.8 1415.17 2208.54 1505.64 2333.37 1580.45" stroke="url(#paint20_linear_123_3098)" stroke-width="2.73336" stroke-miterlimit="10"/>
<path d="M-1406.21 373.994C-1255.3 501.701 -1070.72 583.131 -874.66 608.507C-679.508 632.651 -538.312 582.035 -401.291 560.865C-40.6812 505.115 127.621 392.915 283.366 436.947C417.61 474.947 537.031 490.427 625.147 550.889C738.771 628.84 753.245 626.539 840.146 693.083C913.401 811.934 1226.5 870.454 1401.24 903.851C1570.08 936.171 1580.21 935.227 1677.48 1025.03C1810.41 1147.6 1856.85 1212.05 1984.63 1342.56C2084.76 1446.27 2198.89 1535.48 2323.71 1607.62" stroke="url(#paint21_linear_123_3098)" stroke-width="2.73336" stroke-miterlimit="10"/>
<path d="M-1420.5 403.824C-1275.36 529.301 -1096.51 609.298 -906.227 633.85C-712.61 657.563 -576.396 603.253 -432.258 582.139C-90.3001 532.046 69.3362 435.207 226.598 477.439C379.923 518.613 504.067 551.601 622.668 588.249C769.122 633.493 784.727 651.291 886.671 719.073C969 832.166 1260.32 891.968 1422.79 926.328C1579.16 959.421 1588.07 960.992 1686.64 1062C1815.41 1193.99 1860.43 1253.41 1977.28 1374.37C2075.69 1477.85 2189.21 1565.82 2313.99 1635.28" stroke="url(#paint22_linear_123_3098)" stroke-width="2.73336" stroke-miterlimit="10"/>
<path d="M-1434.98 434.043C-1321.36 535.38 -1149.43 633.553 -937.891 659.669C-745.873 683.356 -614.579 624.86 -463.359 603.872C-140.164 559.033 11.1674 477.076 169.448 518.272C342.006 563.214 481.932 593.353 620.093 626.086C785.577 665.245 829.082 658.078 933.099 745.539C1040.88 836.152 1293.88 914.013 1443.96 949.145C1587.87 982.976 1595.7 986.99 1695.44 1099.28C1820.7 1240.6 1863.63 1295.19 1969.92 1406.64C2035.99 1475.93 2138.61 1574.31 2304.26 1663.41" stroke="url(#paint23_linear_123_3098)" stroke-width="2.73336" stroke-miterlimit="10"/>
<path d="M-1449.71 464.793C-1334.01 569.697 -1168.02 661.715 -969.827 685.966C-779.363 709.258 -653.019 646.822 -494.696 626.101C-190.341 586.219 -47.4987 518.619 112.096 559.617C303.701 608.806 459.777 635.965 617.244 664.401C802.098 697.768 859.234 683.15 979.253 772.484C1093.6 857.75 1327.31 936.253 1464.93 972.474C1596.44 1007.08 1603.64 1013.14 1704.03 1137.1C1825.89 1287.51 1866.46 1337.57 1962.14 1439.33C2026.94 1508.27 2127.76 1605.78 2294.09 1692" stroke="url(#paint24_linear_123_3098)" stroke-width="2.73336" stroke-miterlimit="10"/>
<path d="M-1464.61 495.897C-1346.81 604.596 -1186.78 690.231 -1001.95 712.652C-813.039 735.549 -691.7 669.104 -526.221 648.718C-240.708 613.53 -106.182 560.197 54.5223 601.334C265.165 655.243 437.561 679.158 614.209 703.105C818.699 730.852 888.845 709.443 1025.22 799.818C1146.23 879.998 1360.46 959.06 1485.67 996.176C1604.62 1031.38 1611.42 1039.64 1712.38 1175.3C1831.13 1334.76 1869.01 1380.43 1954.18 1472.41C2017.73 1541.05 2116.6 1637.81 2283.76 1720.93" stroke="url(#paint25_linear_123_3098)" stroke-width="2.73336" stroke-miterlimit="10"/>
<path d="M-1479.73 527.463C-1359.96 639.589 -1205.7 719.19 -1034.28 739.764C-846.901 762.231 -730.588 691.636 -557.948 671.762C-291.336 641.022 -159.252 583.514 -3.21911 643.494C218 728.517 415.231 722.862 610.971 742.235C835.221 764.465 942.411 705.005 1070.99 827.577C1178.33 930.092 1393.37 982.012 1506.25 1020.32C1612.65 1056.26 1619.16 1066.48 1720.59 1213.9C1836.4 1382.32 1871.22 1423.83 1946.01 1505.91C2008.26 1574.28 2105.3 1670.2 2273.2 1750.33" stroke="url(#paint26_linear_123_3098)" stroke-width="2.73336" stroke-miterlimit="10"/>
<path d="M-1495.34 560.055C-1373.52 675.818 -1225.12 749.088 -1067.16 768.133C-881.358 790.151 -770.072 715.232 -590.27 696.045C-342.403 669.61 -219.787 628.866 -61.5906 686.877C179.255 775.117 392.431 767.91 607.173 782.622C851.326 799.402 966.31 736.402 1116.19 856.593C1235.07 951.956 1425.81 1006.57 1526.2 1045.69C1620.13 1082.28 1626.67 1094.55 1728.15 1253.76C1841.25 1431.11 1872.78 1468.57 1937.29 1540.67C1998.18 1608.78 2093.43 1703.8 2262.11 1780.95" stroke="url(#paint27_linear_123_3098)" stroke-width="2.73336" stroke-miterlimit="10"/>
<path d="M-1511.94 594.701C-1388.11 714.085 -1245.63 781.165 -1100.88 798.149C-916.612 819.737 -810.393 740.3 -623.39 721.992C-394.606 699.57 -281.154 675.865 -120.724 731.941C139.99 823.077 368.888 814.692 602.526 824.691C866.809 836 989.363 771.836 1160.55 887.292C1290.71 975.084 1457.37 1032.53 1545.39 1072.74C1626.8 1109.91 1633.48 1124.25 1734.95 1295.3C1845.44 1481.56 1873.55 1515.15 1927.72 1577.11C1987.2 1645.07 2080.92 1739.19 2250.16 1813.25" stroke="url(#paint28_linear_123_3098)" stroke-width="2.73336" stroke-miterlimit="10"/>
<path d="M-1528.83 629.951C-1402.95 752.973 -1266.35 813.792 -1134.99 828.982C-952.24 850.103 -851.091 765.885 -656.9 748.756C-447.008 730.22 -342.984 723.559 -180.283 777.805C100.343 871.381 345.043 862.288 597.505 867.542C882.115 873.518 1012.15 809.93 1204.53 918.773C1345.72 998.647 1488.62 1059.22 1564.15 1100.58C1633.05 1138.25 1640.07 1154.68 1741.33 1337.65C1849.43 1532.86 1873.44 1562.66 1917.75 1614.37C1975.7 1682.25 2067.62 1775.24 2237.83 1846.37" stroke="url(#paint29_linear_123_3098)" stroke-width="2.73336" stroke-miterlimit="10"/>
<path d="M-1547.21 668.32C-1419.27 794.944 -1288.58 849.274 -1170.58 862.898C-989.298 883.183 -893.308 794.185 -691.887 778.604C-500.907 763.813 -406.31 774.284 -241.285 826.769C59.2826 922.362 319.774 913.038 590.865 913.408C895.517 913.915 1027.27 867.92 1246.89 953.268C1403.38 1014.12 1518.22 1088.91 1581.33 1131.46C1637.84 1169.6 1645.19 1188.19 1746.13 1382.98C1851.88 1587.22 1871.89 1613.1 1906.2 1654.58C1962.4 1722.57 2052.94 1814.34 2223.89 1882.46" stroke="url(#paint30_linear_123_3098)" stroke-width="2.73336" stroke-miterlimit="10"/>
<path d="M-1565.4 706.297C-1435.45 836.541 -1310.63 884.663 -1205.96 896.475C-1026.25 916.312 -935.381 821.638 -726.704 808.094C-554.62 796.927 -469.519 824.583 -302.151 875.359C18.4744 972.633 294.727 963.412 584.698 959.106C909.745 954.225 1053.42 904.884 1289.73 987.595C1453.82 1045.12 1548.48 1118.21 1598.92 1162.11C1643.11 1200.7 1650.91 1221.42 1751.34 1428.12C1854.95 1641.35 1870.56 1663.51 1895.11 1694.65C1949.08 1763.1 2038.72 1853.21 2210.44 1918.36" stroke="url(#paint31_linear_123_3098)" stroke-width="2.73336" stroke-miterlimit="10"/>
<path d="M-1583.61 744.31C-1451.7 878.105 -1332.48 920.189 -1241.37 930.034C-1063.34 949.373 -977.429 848.404 -761.52 837.585C-608.266 829.898 -532.763 874.866 -362.981 923.966C-22.3053 1022.48 269.785 1013.66 578.37 1004.68C923.796 994.45 1079.75 941.757 1332.41 1021.8C1504.65 1076.4 1578.78 1147.32 1616.41 1192.7C1648.52 1231.42 1656.48 1254.53 1756.44 1473.21C1857.94 1695.49 1868.92 1713.94 1883.85 1734.6C1934.32 1804.46 2024.3 1892.04 2196.8 1954.2" stroke="url(#paint32_linear_123_3098)" stroke-width="2.73336" stroke-miterlimit="10"/>
</g>
<defs>
<linearGradient id="paint0_linear_123_3098" x1="735.21" y1="490.887" x2="501.03" y2="979.737" gradientUnits="userSpaceOnUse">
<stop stop-color="#4A3AFF" stop-opacity="0.5"/>
<stop offset="1" stop-color="#FF7AFF" stop-opacity="0.39"/>
</linearGradient>
<linearGradient id="paint1_linear_123_3098" x1="724.032" y1="508.312" x2="505.103" y2="965.326" gradientUnits="userSpaceOnUse">
<stop stop-color="#4A3AFF" stop-opacity="0.5"/>
<stop offset="1" stop-color="#FF7AFF" stop-opacity="0.39"/>
</linearGradient>
<linearGradient id="paint2_linear_123_3098" x1="714.203" y1="522.828" x2="507.707" y2="953.888" gradientUnits="userSpaceOnUse">
<stop stop-color="#4A3AFF" stop-opacity="0.5"/>
<stop offset="1" stop-color="#FF7AFF" stop-opacity="0.39"/>
</linearGradient>
<linearGradient id="paint3_linear_123_3098" x1="706.103" y1="533.735" x2="508.532" y2="946.165" gradientUnits="userSpaceOnUse">
<stop stop-color="#4A3AFF" stop-opacity="0.5"/>
<stop offset="1" stop-color="#FF7AFF" stop-opacity="0.39"/>
</linearGradient>
<linearGradient id="paint4_linear_123_3098" x1="699.077" y1="542.4" x2="508.484" y2="940.264" gradientUnits="userSpaceOnUse">
<stop stop-color="#4A3AFF" stop-opacity="0.5"/>
<stop offset="1" stop-color="#FF7AFF" stop-opacity="0.39"/>
</linearGradient>
<linearGradient id="paint5_linear_123_3098" x1="698.773" y1="537.172" x2="501.678" y2="948.606" gradientUnits="userSpaceOnUse">
<stop stop-color="#4A3AFF" stop-opacity="0.5"/>
<stop offset="1" stop-color="#FF7AFF" stop-opacity="0.39"/>
</linearGradient>
<linearGradient id="paint6_linear_123_3098" x1="701.824" y1="524.756" x2="491.312" y2="964.199" gradientUnits="userSpaceOnUse">
<stop stop-color="#4A3AFF" stop-opacity="0.5"/>
<stop offset="1" stop-color="#FF7AFF" stop-opacity="0.39"/>
</linearGradient>
<linearGradient id="paint7_linear_123_3098" x1="705.099" y1="511.781" x2="480.792" y2="980.023" gradientUnits="userSpaceOnUse">
<stop stop-color="#4A3AFF" stop-opacity="0.5"/>
<stop offset="1" stop-color="#FF7AFF" stop-opacity="0.39"/>
</linearGradient>
<linearGradient id="paint8_linear_123_3098" x1="708.623" y1="498.652" x2="470.308" y2="996.135" gradientUnits="userSpaceOnUse">
<stop stop-color="#4A3AFF" stop-opacity="0.5"/>
<stop offset="1" stop-color="#FF7AFF" stop-opacity="0.39"/>
</linearGradient>
<linearGradient id="paint9_linear_123_3098" x1="712.345" y1="485.2" x2="459.583" y2="1012.84" gradientUnits="userSpaceOnUse">
<stop stop-color="#4A3AFF" stop-opacity="0.5"/>
<stop offset="1" stop-color="#FF7AFF" stop-opacity="0.39"/>
</linearGradient>
<linearGradient id="paint10_linear_123_3098" x1="716.067" y1="471.066" x2="448.422" y2="1029.77" gradientUnits="userSpaceOnUse">
<stop stop-color="#4A3AFF" stop-opacity="0.5"/>
<stop offset="1" stop-color="#FF7AFF" stop-opacity="0.39"/>
</linearGradient>
<linearGradient id="paint11_linear_123_3098" x1="720.083" y1="456.454" x2="437.033" y2="1047.32" gradientUnits="userSpaceOnUse">
<stop stop-color="#4A3AFF" stop-opacity="0.5"/>
<stop offset="1" stop-color="#FF7AFF" stop-opacity="0.39"/>
</linearGradient>
<linearGradient id="paint12_linear_123_3098" x1="724.487" y1="441.669" x2="425.72" y2="1065.35" gradientUnits="userSpaceOnUse">
<stop stop-color="#4A3AFF" stop-opacity="0.5"/>
<stop offset="1" stop-color="#FF7AFF" stop-opacity="0.39"/>
</linearGradient>
<linearGradient id="paint13_linear_123_3098" x1="728.99" y1="426.267" x2="414.067" y2="1083.67" gradientUnits="userSpaceOnUse">
<stop stop-color="#4A3AFF" stop-opacity="0.5"/>
<stop offset="1" stop-color="#FF7AFF" stop-opacity="0.39"/>
</linearGradient>
<linearGradient id="paint14_linear_123_3098" x1="733.534" y1="410.596" x2="402.203" y2="1102.25" gradientUnits="userSpaceOnUse">
<stop stop-color="#4A3AFF" stop-opacity="0.5"/>
<stop offset="1" stop-color="#FF7AFF" stop-opacity="0.39"/>
</linearGradient>
<linearGradient id="paint15_linear_123_3098" x1="738.283" y1="394.776" x2="390.316" y2="1121.16" gradientUnits="userSpaceOnUse">
<stop stop-color="#4A3AFF" stop-opacity="0.5"/>
<stop offset="1" stop-color="#FF7AFF" stop-opacity="0.39"/>
</linearGradient>
<linearGradient id="paint16_linear_123_3098" x1="743.186" y1="378.765" x2="378.397" y2="1140.26" gradientUnits="userSpaceOnUse">
<stop stop-color="#4A3AFF" stop-opacity="0.5"/>
<stop offset="1" stop-color="#FF7AFF" stop-opacity="0.39"/>
</linearGradient>
<linearGradient id="paint17_linear_123_3098" x1="726.979" y1="416.372" x2="374.546" y2="1152.08" gradientUnits="userSpaceOnUse">
<stop stop-color="#4A3AFF" stop-opacity="0.5"/>
<stop offset="1" stop-color="#FF7AFF" stop-opacity="0.39"/>
</linearGradient>
<linearGradient id="paint18_linear_123_3098" x1="710.897" y1="453.532" x2="370.421" y2="1164.28" gradientUnits="userSpaceOnUse">
<stop stop-color="#4A3AFF" stop-opacity="0.5"/>
<stop offset="1" stop-color="#FF7AFF" stop-opacity="0.39"/>
</linearGradient>
<linearGradient id="paint19_linear_123_3098" x1="698.791" y1="482.534" x2="362.43" y2="1184.69" gradientUnits="userSpaceOnUse">
<stop stop-color="#4A3AFF" stop-opacity="0.5"/>
<stop offset="1" stop-color="#FF7AFF" stop-opacity="0.39"/>
</linearGradient>
<linearGradient id="paint20_linear_123_3098" x1="691.455" y1="501.531" x2="349.724" y2="1214.89" gradientUnits="userSpaceOnUse">
<stop stop-color="#4A3AFF" stop-opacity="0.5"/>
<stop offset="1" stop-color="#FF7AFF" stop-opacity="0.39"/>
</linearGradient>
<linearGradient id="paint21_linear_123_3098" x1="684.238" y1="520.096" x2="336.576" y2="1245.84" gradientUnits="userSpaceOnUse">
<stop stop-color="#4A3AFF" stop-opacity="0.5"/>
<stop offset="1" stop-color="#FF7AFF" stop-opacity="0.39"/>
</linearGradient>
<linearGradient id="paint22_linear_123_3098" x1="677.42" y1="538.01" x2="323.261" y2="1277.32" gradientUnits="userSpaceOnUse">
<stop stop-color="#4A3AFF" stop-opacity="0.5"/>
<stop offset="1" stop-color="#FF7AFF" stop-opacity="0.39"/>
</linearGradient>
<linearGradient id="paint23_linear_123_3098" x1="670.936" y1="555.456" x2="309.763" y2="1309.4" gradientUnits="userSpaceOnUse">
<stop stop-color="#4A3AFF" stop-opacity="0.5"/>
<stop offset="1" stop-color="#FF7AFF" stop-opacity="0.39"/>
</linearGradient>
<linearGradient id="paint24_linear_123_3098" x1="664.572" y1="572.423" x2="296.014" y2="1341.79" gradientUnits="userSpaceOnUse">
<stop stop-color="#4A3AFF" stop-opacity="0.5"/>
<stop offset="1" stop-color="#FF7AFF" stop-opacity="0.39"/>
</linearGradient>
<linearGradient id="paint25_linear_123_3098" x1="658.396" y1="588.997" x2="282.062" y2="1374.59" gradientUnits="userSpaceOnUse">
<stop stop-color="#4A3AFF" stop-opacity="0.5"/>
<stop offset="1" stop-color="#FF7AFF" stop-opacity="0.39"/>
</linearGradient>
<linearGradient id="paint26_linear_123_3098" x1="652.378" y1="605.242" x2="267.942" y2="1407.75" gradientUnits="userSpaceOnUse">
<stop stop-color="#4A3AFF" stop-opacity="0.5"/>
<stop offset="1" stop-color="#FF7AFF" stop-opacity="0.39"/>
</linearGradient>
<linearGradient id="paint27_linear_123_3098" x1="646.83" y1="620.552" x2="253.321" y2="1442" gradientUnits="userSpaceOnUse">
<stop stop-color="#4A3AFF" stop-opacity="0.5"/>
<stop offset="1" stop-color="#FF7AFF" stop-opacity="0.39"/>
</linearGradient>
<linearGradient id="paint28_linear_123_3098" x1="642.397" y1="633.488" x2="237.698" y2="1478.3" gradientUnits="userSpaceOnUse">
<stop stop-color="#4A3AFF" stop-opacity="0.5"/>
<stop offset="1" stop-color="#FF7AFF" stop-opacity="0.39"/>
</linearGradient>
<linearGradient id="paint29_linear_123_3098" x1="638.18" y1="645.974" x2="221.785" y2="1515.2" gradientUnits="userSpaceOnUse">
<stop stop-color="#4A3AFF" stop-opacity="0.5"/>
<stop offset="1" stop-color="#FF7AFF" stop-opacity="0.39"/>
</linearGradient>
<linearGradient id="paint30_linear_123_3098" x1="635.33" y1="655.425" x2="204.354" y2="1555.09" gradientUnits="userSpaceOnUse">
<stop stop-color="#4A3AFF" stop-opacity="0.5"/>
<stop offset="1" stop-color="#FF7AFF" stop-opacity="0.39"/>
</linearGradient>
<linearGradient id="paint31_linear_123_3098" x1="632.512" y1="665.215" x2="187.216" y2="1594.77" gradientUnits="userSpaceOnUse">
<stop stop-color="#4A3AFF" stop-opacity="0.5"/>
<stop offset="1" stop-color="#FF7AFF" stop-opacity="0.39"/>
</linearGradient>
<linearGradient id="paint32_linear_123_3098" x1="629.615" y1="674.947" x2="169.981" y2="1634.43" gradientUnits="userSpaceOnUse">
<stop stop-color="#4A3AFF" stop-opacity="0.5"/>
<stop offset="1" stop-color="#FF7AFF" stop-opacity="0.39"/>
</linearGradient>
<clipPath id="clip0_123_3098">
<rect width="1941.17" height="1380.39" fill="white" transform="translate(-54.8653 -138.23) rotate(25.5964)"/>
</clipPath>
</defs>
</svg>
