<svg width="1441" height="798" viewBox="0 0 1441 798" fill="none" xmlns="http://www.w3.org/2000/svg">
<path d="M-225.124 138.513C80.0182 230.916 244.5 352.785 339.363 452.482C418.44 535.601 417.037 569.601 501.006 631.614C683.226 766.179 1032.29 858.975 1201.46 743.334C1284.8 686.369 1253.97 614.18 1293.83 477.52C1329.7 354.586 1422.41 185.507 1681.27 1.75391" stroke="url(#paint0_linear_123_3182)" stroke-opacity="0.66" stroke-width="3.01836" stroke-miterlimit="10"/>
<path d="M-224.513 168.326C72.2878 247.739 235.125 362.388 329.938 455.692C409.714 534.222 416.201 565.624 505.391 626.571C692.491 754.425 1020.31 843.437 1189.72 735.537C1276.98 679.964 1257.13 609.009 1303.84 472.75C1344.96 352.789 1439.57 186.602 1693.96 4.49707" stroke="url(#paint1_linear_123_3182)" stroke-opacity="0.66" stroke-width="3.01836" stroke-miterlimit="10"/>
<path d="M-223.903 198.133C64.5519 264.561 225.871 372.019 320.529 458.9C401.17 532.915 415.221 561.65 509.792 621.527C701.36 742.817 1008.85 828.104 1178 727.742C1269.38 673.519 1260.16 603.907 1313.86 467.982C1360.08 351.024 1456.74 187.708 1706.69 7.25879" stroke="url(#paint2_linear_123_3182)" stroke-opacity="0.66" stroke-width="3.01836" stroke-miterlimit="10"/>
<path d="M-223.292 227.946C56.816 281.388 216.776 381.68 311.121 462.134C392.729 531.688 414.082 557.705 514.215 616.48C709.87 731.376 997.879 813.004 1166.29 719.944C1261.98 667.076 1263.06 598.864 1323.9 463.212C1375 349.286 1473.94 188.815 1719.4 10.0098" stroke="url(#paint3_linear_123_3182)" stroke-opacity="0.66" stroke-width="3.01836" stroke-miterlimit="10"/>
<path d="M-222.68 257.754C49.1097 298.202 207.87 391.341 301.715 465.323C384.434 530.528 412.851 553.798 518.585 611.436C717.987 720.105 987.312 798.151 1154.53 712.146C1254.72 660.62 1265.74 593.854 1333.89 458.442C1389.7 347.555 1491.09 189.918 1732.08 12.7812" stroke="url(#paint4_linear_123_3182)" stroke-opacity="0.66" stroke-width="3.01836" stroke-miterlimit="10"/>
<path d="M-222.07 287.564C41.3519 315.026 199.166 401.007 292.306 468.533C376.313 529.439 411.421 549.95 522.986 606.391C725.833 709.02 977.178 783.552 1142.8 704.353C1247.67 654.203 1268.25 588.87 1343.91 453.672C1404.25 345.822 1508.26 191.026 1744.79 15.5127" stroke="url(#paint5_linear_123_3182)" stroke-opacity="0.66" stroke-width="3.01836" stroke-miterlimit="10"/>
<path d="M-221.459 317.372C33.6159 331.828 190.704 410.63 282.898 471.742C368.379 528.406 409.896 546.166 527.382 601.347C733.425 698.116 967.406 769.216 1131.07 696.555C1240.8 647.842 1270.63 583.884 1353.93 448.906C1418.63 344.07 1525.45 192.133 1757.49 18.2676" stroke="url(#paint6_linear_123_3182)" stroke-opacity="0.66" stroke-width="3.01836" stroke-miterlimit="10"/>
<path d="M-220.827 347.185C25.9016 348.668 182.527 420.209 273.511 474.952C360.687 527.407 408.305 542.466 531.799 596.305C740.813 687.399 957.986 755.14 1119.37 688.757C1234.11 641.56 1272.83 578.891 1363.97 444.136C1432.83 342.299 1542.6 193.252 1770.2 21.0186" stroke="url(#paint7_linear_123_3182)" stroke-opacity="0.66" stroke-width="3.01836" stroke-miterlimit="10"/>
<path d="M-220.238 376.993C18.1442 365.49 174.594 429.695 264.081 478.165C353.21 526.423 406.534 538.88 536.179 591.256C747.999 676.861 948.815 741.327 1107.61 680.963C1227.55 635.381 1274.8 573.855 1373.97 439.364C1446.88 340.489 1559.77 194.342 1782.93 23.7686" stroke="url(#paint8_linear_123_3182)" stroke-opacity="0.66" stroke-width="3.01836" stroke-miterlimit="10"/>
<path d="M-219.628 406.788C10.4137 382.299 166.973 439.045 254.672 481.36C345.964 525.406 404.718 535.335 540.574 586.2C755.024 666.485 939.874 727.754 1095.88 673.151C1221.13 629.316 1276.61 568.758 1383.99 434.58C1460.78 338.621 1576.95 195.435 1795.61 26.5059" stroke="url(#paint9_linear_123_3182)" stroke-opacity="0.66" stroke-width="3.01836" stroke-miterlimit="10"/>
<path d="M-219.016 436.614C2.70751 399.136 159.652 448.266 245.272 484.584C339.012 524.351 402.838 531.946 544.978 581.167C761.958 656.306 931.144 714.46 1084.16 665.372C1214.86 623.437 1278.25 563.617 1394.01 429.824C1474.55 336.731 1594.12 196.557 1808.32 29.2793" stroke="url(#paint10_linear_123_3182)" stroke-opacity="0.66" stroke-width="3.01836" stroke-miterlimit="10"/>
<path d="M-218.405 466.422C-5.05587 415.954 152.61 457.274 235.863 487.793C332.321 523.156 400.918 528.658 549.373 576.123C768.808 646.273 922.572 701.387 1072.43 657.573C1208.71 617.728 1279.72 558.38 1404.03 425.057C1488.2 334.769 1611.29 197.659 1821.02 32.0254" stroke="url(#paint11_linear_123_3182)" stroke-opacity="0.66" stroke-width="3.01836" stroke-miterlimit="10"/>
<path d="M-217.795 496.235C-12.7918 432.777 145.809 466.051 226.455 491.006C325.883 521.773 398.904 525.482 553.774 571.081C775.602 636.393 914.11 688.547 1060.7 649.775C1202.65 612.231 1281.03 553.048 1414.04 420.287C1501.75 332.745 1628.46 198.766 1833.73 34.7764" stroke="url(#paint12_linear_123_3182)" stroke-opacity="0.66" stroke-width="3.01836" stroke-miterlimit="10"/>
<path d="M-217.185 526.042C-20.5221 449.598 139.212 474.57 217.046 494.214C319.672 520.115 396.879 522.424 558.159 566.032C782.347 626.648 905.714 675.898 1048.96 641.98C1196.7 606.976 1282.17 547.598 1424.05 415.515C1515.22 330.65 1645.63 199.859 1846.44 37.5381" stroke="url(#paint13_linear_123_3182)" stroke-opacity="0.66" stroke-width="3.01836" stroke-miterlimit="10"/>
<path d="M-216.574 555.851C-28.2581 466.418 132.747 482.815 207.616 497.424C313.603 518.1 394.81 519.484 562.549 560.989C789.086 617.042 897.351 663.495 1037.22 634.182C1190.8 601.995 1283.18 542.031 1434.06 410.733C1528.59 328.473 1662.79 200.963 1859.12 40.2646" stroke="url(#paint14_linear_123_3182)" stroke-opacity="0.66" stroke-width="3.01836" stroke-miterlimit="10"/>
<path d="M-215.964 585.663C-35.9664 483.24 126.337 490.777 198.229 500.632C307.66 515.634 392.768 516.662 566.967 555.941C795.842 607.57 889.021 651.265 1025.51 626.388C1184.98 597.315 1284.1 536.347 1444.1 405.978C1541.95 326.247 1679.98 202.081 1871.85 43.0312" stroke="url(#paint15_linear_123_3182)" stroke-opacity="0.66" stroke-width="3.01836" stroke-miterlimit="10"/>
<path d="M-215.326 615.472C-43.7019 500.063 120.67 513.404 188.849 503.846C300.365 488.209 390.733 513.961 571.396 550.898C802.637 598.186 880.636 639.217 1013.78 618.59C1179.16 592.982 1284.88 530.495 1454.12 401.208C1555.25 323.946 1697.15 203.188 1884.56 45.7988" stroke="url(#paint16_linear_123_3182)" stroke-opacity="0.66" stroke-width="3.01836" stroke-miterlimit="10"/>
<path d="M-214.741 645.281C-51.4581 516.886 114.873 518.237 179.415 507.056C292.537 487.462 388.643 511.372 575.765 545.856C809.455 588.935 872.154 627.347 1002.05 610.793C1173.32 588.993 1285.58 524.519 1464.14 396.43C1568.52 321.559 1714.32 204.283 1897.26 48.5254" stroke="url(#paint17_linear_123_3182)" stroke-opacity="0.66" stroke-width="3.01836" stroke-miterlimit="10"/>
<path d="M-214.131 675.093C-59.194 533.704 108.314 522.594 170.006 510.265C285.165 487.255 386.591 508.898 580.166 540.829C816.31 579.761 863.565 615.612 990.321 603.019C1167.44 585.42 1286.19 518.414 1474.16 391.688C1581.77 319.139 1731.5 205.411 1909.97 51.3047" stroke="url(#paint18_linear_123_3182)" stroke-opacity="0.66" stroke-width="3.01836" stroke-miterlimit="10"/>
<path d="M-213.52 704.902C-66.9299 550.527 99.0104 520.277 160.603 513.474C281.924 500.104 384.571 506.527 584.568 535.778C823.236 570.667 854.828 603.998 978.597 595.213C1161.47 582.219 1286.74 512.111 1484.19 386.897C1595.03 316.599 1748.68 206.506 1922.68 54.0352" stroke="url(#paint19_linear_123_3182)" stroke-opacity="0.66" stroke-width="3.01836" stroke-miterlimit="10"/>
<path d="M-212.91 734.71C-74.6658 567.35 91.3405 527.291 151.189 516.688C274.237 494.892 382.563 504.264 588.958 530.731C830.207 561.655 845.893 592.512 966.861 587.415C1155.36 579.477 1287.25 505.718 1494.19 382.139C1608.27 314.018 1765.84 207.621 1935.38 56.7988" stroke="url(#paint20_linear_123_3182)" stroke-opacity="0.66" stroke-width="3.01836" stroke-miterlimit="10"/>
<path d="M-212.3 764.522C-82.3962 584.172 83.148 534.311 141.781 519.896C265.847 489.381 380.593 502.099 593.359 525.678C837.26 552.707 836.748 581.116 955.136 579.612C1149.08 577.134 1287.72 499.149 1504.22 377.363C1621.53 311.377 1783.01 208.714 1948.09 59.54" stroke="url(#paint21_linear_123_3182)" stroke-opacity="0.66" stroke-width="3.01836" stroke-miterlimit="10"/>
<defs>
<linearGradient id="paint0_linear_123_3182" x1="728.072" y1="1.75391" x2="728.072" y2="795.781" gradientUnits="userSpaceOnUse">
<stop stop-color="#FF7AFF"/>
<stop offset="1" stop-color="#4A3AFF"/>
</linearGradient>
<linearGradient id="paint1_linear_123_3182" x1="734.723" y1="4.49707" x2="734.723" y2="783.828" gradientUnits="userSpaceOnUse">
<stop stop-color="#FF7AFF"/>
<stop offset="1" stop-color="#4A3AFF"/>
</linearGradient>
<linearGradient id="paint2_linear_123_3182" x1="741.394" y1="7.25879" x2="741.394" y2="772.015" gradientUnits="userSpaceOnUse">
<stop stop-color="#FF7AFF"/>
<stop offset="1" stop-color="#4A3AFF"/>
</linearGradient>
<linearGradient id="paint3_linear_123_3182" x1="748.053" y1="10.0098" x2="748.053" y2="760.356" gradientUnits="userSpaceOnUse">
<stop stop-color="#FF7AFF"/>
<stop offset="1" stop-color="#4A3AFF"/>
</linearGradient>
<linearGradient id="paint4_linear_123_3182" x1="754.698" y1="12.7812" x2="754.698" y2="748.86" gradientUnits="userSpaceOnUse">
<stop stop-color="#FF7AFF"/>
<stop offset="1" stop-color="#4A3AFF"/>
</linearGradient>
<linearGradient id="paint5_linear_123_3182" x1="761.358" y1="15.5127" x2="761.358" y2="737.536" gradientUnits="userSpaceOnUse">
<stop stop-color="#FF7AFF"/>
<stop offset="1" stop-color="#4A3AFF"/>
</linearGradient>
<linearGradient id="paint6_linear_123_3182" x1="768.015" y1="18.2676" x2="768.015" y2="726.383" gradientUnits="userSpaceOnUse">
<stop stop-color="#FF7AFF"/>
<stop offset="1" stop-color="#4A3AFF"/>
</linearGradient>
<linearGradient id="paint7_linear_123_3182" x1="774.685" y1="21.0186" x2="774.685" y2="715.404" gradientUnits="userSpaceOnUse">
<stop stop-color="#FF7AFF"/>
<stop offset="1" stop-color="#4A3AFF"/>
</linearGradient>
<linearGradient id="paint8_linear_123_3182" x1="781.348" y1="23.7686" x2="781.348" y2="704.601" gradientUnits="userSpaceOnUse">
<stop stop-color="#FF7AFF"/>
<stop offset="1" stop-color="#4A3AFF"/>
</linearGradient>
<linearGradient id="paint9_linear_123_3182" x1="787.991" y1="26.5059" x2="787.991" y2="693.951" gradientUnits="userSpaceOnUse">
<stop stop-color="#FF7AFF"/>
<stop offset="1" stop-color="#4A3AFF"/>
</linearGradient>
<linearGradient id="paint10_linear_123_3182" x1="794.653" y1="29.2793" x2="794.653" y2="683.501" gradientUnits="userSpaceOnUse">
<stop stop-color="#FF7AFF"/>
<stop offset="1" stop-color="#4A3AFF"/>
</linearGradient>
<linearGradient id="paint11_linear_123_3182" x1="801.31" y1="32.0254" x2="801.31" y2="673.197" gradientUnits="userSpaceOnUse">
<stop stop-color="#FF7AFF"/>
<stop offset="1" stop-color="#4A3AFF"/>
</linearGradient>
<linearGradient id="paint12_linear_123_3182" x1="807.969" y1="34.7764" x2="807.969" y2="663.055" gradientUnits="userSpaceOnUse">
<stop stop-color="#FF7AFF"/>
<stop offset="1" stop-color="#4A3AFF"/>
</linearGradient>
<linearGradient id="paint13_linear_123_3182" x1="814.626" y1="37.5381" x2="814.626" y2="653.062" gradientUnits="userSpaceOnUse">
<stop stop-color="#FF7AFF"/>
<stop offset="1" stop-color="#4A3AFF"/>
</linearGradient>
<linearGradient id="paint14_linear_123_3182" x1="821.275" y1="40.2646" x2="821.275" y2="643.24" gradientUnits="userSpaceOnUse">
<stop stop-color="#FF7AFF"/>
<stop offset="1" stop-color="#4A3AFF"/>
</linearGradient>
<linearGradient id="paint15_linear_123_3182" x1="827.943" y1="43.0312" x2="827.943" y2="633.571" gradientUnits="userSpaceOnUse">
<stop stop-color="#FF7AFF"/>
<stop offset="1" stop-color="#4A3AFF"/>
</linearGradient>
<linearGradient id="paint16_linear_123_3182" x1="834.616" y1="45.7988" x2="834.616" y2="624.059" gradientUnits="userSpaceOnUse">
<stop stop-color="#FF7AFF"/>
<stop offset="1" stop-color="#4A3AFF"/>
</linearGradient>
<linearGradient id="paint17_linear_123_3182" x1="841.261" y1="48.5254" x2="841.261" y2="645.281" gradientUnits="userSpaceOnUse">
<stop stop-color="#FF7AFF"/>
<stop offset="1" stop-color="#4A3AFF"/>
</linearGradient>
<linearGradient id="paint18_linear_123_3182" x1="847.921" y1="51.3047" x2="847.921" y2="675.093" gradientUnits="userSpaceOnUse">
<stop stop-color="#FF7AFF"/>
<stop offset="1" stop-color="#4A3AFF"/>
</linearGradient>
<linearGradient id="paint19_linear_123_3182" x1="854.58" y1="54.0352" x2="854.58" y2="704.902" gradientUnits="userSpaceOnUse">
<stop stop-color="#FF7AFF"/>
<stop offset="1" stop-color="#4A3AFF"/>
</linearGradient>
<linearGradient id="paint20_linear_123_3182" x1="861.237" y1="56.7988" x2="861.237" y2="734.711" gradientUnits="userSpaceOnUse">
<stop stop-color="#FF7AFF"/>
<stop offset="1" stop-color="#4A3AFF"/>
</linearGradient>
<linearGradient id="paint21_linear_123_3182" x1="867.897" y1="59.54" x2="867.897" y2="764.522" gradientUnits="userSpaceOnUse">
<stop stop-color="#FF7AFF"/>
<stop offset="1" stop-color="#4A3AFF"/>
</linearGradient>
</defs>
</svg>
