<svg width="48" height="49" viewBox="0 0 48 49" fill="none" xmlns="http://www.w3.org/2000/svg">
<rect x="6" y="6.1582" width="37" height="37" rx="10" fill="white"/>
<path d="M28.1676 29.2935L30.062 27.3983C30.3172 27.1462 30.64 26.9736 30.9913 26.9015C31.3426 26.8294 31.7072 26.8609 32.041 26.9922L34.3498 27.9144C34.6871 28.0513 34.9763 28.2851 35.181 28.5862C35.3857 28.8874 35.4967 29.2424 35.5 29.6065V33.8368C35.498 34.0845 35.446 34.3293 35.347 34.5563C35.248 34.7834 35.1041 34.988 34.9239 35.158C34.7438 35.3279 34.5311 35.4597 34.2987 35.5452C34.0663 35.6308 33.8191 35.6684 33.5718 35.6558C17.3931 34.649 14.1286 20.9428 13.5113 15.6972C13.4826 15.4397 13.5088 15.1789 13.5881 14.9322C13.6674 14.6854 13.798 14.4583 13.9714 14.2657C14.1448 14.073 14.3569 13.9193 14.5939 13.8146C14.8309 13.71 15.0874 13.6566 15.3465 13.6582H19.4313C19.7958 13.6593 20.1517 13.7695 20.4531 13.9745C20.7545 14.1796 20.9877 14.4702 21.1227 14.8089L22.0446 17.1186C22.1801 17.4512 22.2147 17.8163 22.144 18.1684C22.0733 18.5205 21.9005 18.844 21.6471 19.0984L19.7527 20.9936C19.7527 20.9936 20.8437 28.3797 28.1676 29.2935Z" fill="black"/>
</svg>
