<svg width="48" height="49" viewBox="0 0 48 49" fill="none" xmlns="http://www.w3.org/2000/svg">
<g clip-path="url(#clip0_452_4355)">
<path d="M30.2681 19.2801L22.0278 26.9396C21.7383 27.2087 21.5512 27.57 21.4983 27.9617L21.2179 30.0416C21.1806 30.3191 20.7901 30.347 20.7135 30.0778L19.634 26.285C19.5108 25.8521 19.6904 25.39 20.0736 25.154L30.0581 19.0041C30.2373 18.8939 30.4222 19.1368 30.2681 19.2801ZM32.5 6.1582C38.0228 6.1582 42.5 10.6354 42.5 16.1582V33.1582C42.5 38.681 38.0229 43.1582 32.5 43.1582H15.5C9.97715 43.1582 5.5 38.6811 5.5 33.1582V16.1582C5.5 10.6354 9.97715 6.1582 15.5 6.1582H32.5ZM34.2662 15.0475L13.2997 23.1357C12.7828 23.3351 12.7868 24.0679 13.3058 24.2617L13.8191 24.4533C16.7177 25.5353 18.9522 27.898 19.8709 30.8524L20.392 32.528C20.5187 32.9352 21.017 33.0854 21.3475 32.8159L24.1952 30.4943C24.4938 30.251 24.9186 30.2391 25.2302 30.4653L30.3669 34.1947C30.7204 34.4514 31.2213 34.2578 31.3102 33.8299L35.0725 15.7316C35.1696 15.2649 34.7111 14.8758 34.2662 15.0475Z" fill="white"/>
</g>
<defs>
<clipPath id="clip0_452_4355">
<rect x="5.5" y="6.1582" width="37" height="37" rx="4" fill="white"/>
</clipPath>
</defs>
</svg>
