<svg width="48" height="48" viewBox="0 0 48 48" fill="none" xmlns="http://www.w3.org/2000/svg">
<path fill-rule="evenodd" clip-rule="evenodd" d="M42.6667 24C42.6667 34.3087 34.3087 42.6667 24 42.6667C13.6913 42.6667 5.33334 34.3087 5.33334 24C5.33334 13.6914 13.6913 5.33337 24 5.33337C34.3087 5.33337 42.6667 13.6914 42.6667 24ZM24.6689 19.114C22.8536 19.8685 19.2245 21.4318 13.7831 23.8025C12.8996 24.154 12.436 24.4978 12.394 24.8338C12.3225 25.4032 13.0349 25.6272 14.0025 25.9305C14.1347 25.9725 14.2716 26.0145 14.4116 26.0612C15.3651 26.3707 16.6469 26.7332 17.3127 26.7472C17.9178 26.7596 18.5929 26.5107 19.338 26.0005C24.4216 22.5674 27.0458 20.8329 27.2107 20.7956C27.3273 20.7692 27.4891 20.7349 27.598 20.8329C27.7069 20.9294 27.696 21.1129 27.6851 21.1627C27.6136 21.4629 24.8229 24.0592 23.3762 25.4032C22.9251 25.8216 22.6062 26.1187 22.5409 26.1872C22.3947 26.338 22.2453 26.4827 22.1022 26.6212C21.2156 27.4736 20.5529 28.1145 22.1396 29.1598C22.9018 29.6623 23.5116 30.0776 24.1198 30.4914C24.784 30.944 25.4467 31.3952 26.3053 31.9583C26.5231 32.1014 26.7316 32.2492 26.9353 32.3938C27.7085 32.946 28.4038 33.4407 29.2625 33.3629C29.7602 33.3163 30.2767 32.848 30.538 31.4496C31.1556 28.1425 32.372 20.9807 32.6536 18.0283C32.6707 17.7831 32.6603 17.5368 32.6225 17.294C32.5998 17.0979 32.5043 16.9175 32.3549 16.7885C32.1325 16.6065 31.7871 16.5676 31.6316 16.5707C30.93 16.5832 29.8536 16.958 24.6689 19.114Z" fill="white"/>
</svg>
