<svg width="48" height="48" viewBox="0 0 48 48" fill="none" xmlns="http://www.w3.org/2000/svg">
<g clip-path="url(#clip0_295_4450)">
<path d="M30.2681 18.6219L22.0278 26.2814C21.7383 26.5505 21.5512 26.9118 21.4983 27.3035L21.2179 29.3834C21.1806 29.6609 20.7901 29.6888 20.7135 29.4196L19.634 25.6268C19.5108 25.1939 19.6904 24.7318 20.0736 24.4958L30.0581 18.3459C30.2373 18.2357 30.4222 18.4786 30.2681 18.6219ZM42.5 5.5V42.5H5.5V5.5H42.5ZM34.2662 14.3893L13.2997 22.4775C12.7828 22.6769 12.7868 23.4097 13.3058 23.6035L18.4144 25.5105L20.392 31.8698C20.5187 32.277 21.017 32.4272 21.3475 32.1576L24.1952 29.8361C24.4938 29.5928 24.9186 29.5809 25.2302 29.8071L30.3669 33.5365C30.7204 33.7932 31.2213 33.5996 31.3102 33.1717L35.0725 15.0734C35.1696 14.6067 34.7111 14.2176 34.2662 14.3893Z" fill="white"/>
</g>
<defs>
<clipPath id="clip0_295_4450">
<rect x="5.5" y="5.5" width="37" height="37" rx="4" fill="white"/>
</clipPath>
</defs>
</svg>
